<?xml version="1.0" encoding="UTF-8"?>
<svg id="Layer_1" xmlns="http://www.w3.org/2000/svg" version="1.1" viewBox="0 0 128 128">
  <!-- Generator: Adobe Illustrator 29.1.0, SVG Export Plug-In . SVG Version: 2.1.0 Build 142)  -->
  <defs>
    <style>
      .st0 {
        fill: #010101;
      }

      .st1 {
        fill: #b5dcdc;
      }
    </style>
  </defs>
  <rect class="st1" x="4.49" y="5.03" width="119.16" height="117.37"/>
  <g>
    <path class="st0" d="M58.8-.21H5.47c-2.95,0-5.33,2.39-5.33,5.35v53.47c0,2.95,2.39,5.35,5.33,5.35h53.33c2.94,0,5.33-2.39,5.33-5.35V5.13c0-2.95-2.39-5.35-5.33-5.35ZM32.14,58.61v-8.02c0-.71-.28-1.39-.78-1.89l-5.33-5.35c.52-1.08.78-2.26.78-3.46,0-4.43-3.58-8.02-8-8.02s-8,3.59-8,8.02,3.58,8.02,8,8.02c1.19,0,2.37-.27,3.45-.79l4.55,4.57v6.91H5.47V5.13h16v7.34c-3.28,1.09-5.66,4.09-5.66,7.67,0,4.49,3.73,8.14,8.33,8.14.99,0,1.93-.2,2.81-.51l10.23,10.25c-.3.81-.49,1.67-.49,2.57,0,3.63,2.62,6.65,6.12,7.36v10.64h-10.67ZM58.8,58.61h-10.67v-11.47c2.35-1.29,3.95-3.72,3.95-6.53s-1.6-5.24-3.95-6.53v-8.01c4.16-1.48,6.35-6.06,4.88-10.24-1.47-4.18-6.04-6.37-10.21-4.89-4.17,1.48-6.35,6.06-4.88,10.24.8,2.28,2.6,4.08,4.88,4.89v7.18c-.75.15-1.43.44-2.08.78l-9.54-9.57c.8-1.25,1.29-2.72,1.29-4.31,0-3.58-2.38-6.58-5.66-7.67v-7.34h32v53.47Z"/>
    <path class="st0" d="M63.98,5.13v53.47c0,2.95,2.39,5.35,5.33,5.35h53.33c2.95,0,5.33-2.39,5.33-5.35V5.13c0-2.95-2.39-5.35-5.33-5.35h-53.33c-2.94,0-5.33,2.39-5.33,5.35ZM85.31,58.61v-10.64c3.49-.71,6.12-3.74,6.12-7.36,0-.91-.19-1.77-.49-2.57l10.23-10.25c.88.31,1.82.51,2.81.51,4.6,0,8.33-3.64,8.33-8.14,0-3.58-2.38-6.58-5.66-7.67v-7.34h16v53.47h-21.33v-6.91s4.55-4.57,4.55-4.57c1.07.52,2.25.79,3.45.79,4.42,0,8-3.59,8-8.02s-3.58-8.02-8-8.02-8,3.59-8,8.02c0,1.2.26,2.38.78,3.46l-5.33,5.35c-.5.5-.78,1.18-.78,1.89v8.02h-10.67ZM69.32,5.13h32v7.34c-3.28,1.09-5.66,4.09-5.66,7.67,0,1.59.48,3.05,1.29,4.31l-9.54,9.57c-.65-.35-1.34-.63-2.08-.78v-7.18c2.28-.81,4.07-2.6,4.88-4.89,1.47-4.18-.71-8.76-4.88-10.24-4.16-1.48-8.73.71-10.21,4.89-1.47,4.18.71,8.76,4.88,10.24v8.01c-2.35,1.29-3.95,3.72-3.95,6.53,0,2.82,1.6,5.24,3.95,6.53v11.47h-10.67V5.13Z"/>
    <g>
      <path class="st0" d="M58.64,63.62H5.31C2.36,63.62-.02,66.01-.02,68.97v53.47c0,2.95,2.39,5.35,5.33,5.35h53.33c2.94,0,5.33-2.39,5.33-5.35v-53.47c0-2.95-2.39-5.35-5.33-5.35ZM58.56,122.36H5.26v-53.34h53.3v53.34Z"/>
      <polyline class="st0" points="26.77 68.84 26.77 75.75 32.1 76.86 32.1 68.84 32.1 76.86 32.1 68.84 26.77 68.84 32.1 68.84"/>
      <g>
        <path class="st0" d="M37.1,81.21c-1.99-2.49-4.91-4.87-7.32-6.79-.44-.33-1-.31-1.41.05-2.26,2.08-3.61,4.62-5.42,7.23-4.03,5.79-6.05,11.81-5.86,17.43.3,8.69,7.95,15.48,15.43,15.22,7.47-.26,11.94-7.47,11.63-16.17-.2-5.62-2.63-11.48-7.06-16.98ZM32.42,111.49c-6.11.2-12.61-5.34-12.87-12.45-.36-10.24,7.17-19.23,9.63-21.64,2.62,2.24,12.15,10.63,12.51,20.87.24,7.11-3.16,13-9.27,13.22ZM39.77,100.01c-.51,4.27-3.25,7.69-6.87,8.58-.07.01-.14.02-.2.03-.68.02-1.25-.6-1.28-1.39-.02-.7.39-1.31.98-1.45,2.53-.59,4.6-3.18,4.93-6.16.09-.78.7-1.33,1.38-1.22.67.11,1.15.83,1.06,1.62h0Z"/>
        <path class="st0" d="M32.08,114.7c-7.93,0-15.03-7.16-15.33-15.57-.2-5.68,1.85-11.78,5.92-17.64.45-.65.88-1.3,1.29-1.94,1.26-1.93,2.45-3.76,4.17-5.35.55-.48,1.29-.5,1.86-.07,2.54,2.03,5.41,4.39,7.38,6.85h0c4.47,5.56,6.93,11.5,7.13,17.18.32,9.32-4.71,16.27-11.97,16.52-.15,0-.3,0-.46,0ZM29.11,74.53c-.18,0-.36.07-.51.2-1.66,1.52-2.82,3.31-4.06,5.21-.42.64-.85,1.3-1.3,1.96-3.99,5.73-5.99,11.68-5.8,17.22.25,7.27,6.78,15.18,15.07,14.89,6.86-.24,11.61-6.89,11.3-15.81-.19-5.53-2.61-11.33-6.98-16.77h0c-1.92-2.4-4.76-4.74-7.26-6.74-.14-.11-.3-.16-.46-.16ZM32.11,111.84c-5.94,0-12.63-5.36-12.9-12.79-.41-11.81,9.32-21.49,9.73-21.9l.23-.22.24.21c7.91,6.74,12.39,14.24,12.63,21.12.26,7.78-3.69,13.36-9.61,13.58h0c-.11,0-.22,0-.33,0ZM29.21,77.87c-1.5,1.55-9.67,10.48-9.3,21.16.26,7.16,6.8,12.32,12.51,12.11h0c5.51-.2,9.19-5.49,8.94-12.86-.23-6.61-4.54-13.85-12.14-20.41ZM38.54,98.73c-.2,0-.35.08-.46.16-.22.17-.37.45-.41.77-.34,3.12-2.53,5.84-5.2,6.46-.42.1-.73.57-.71,1.1.02.59.42,1.05.9,1.05.05,0,.11,0,.17-.02,3.46-.84,6.11-4.17,6.6-8.28.07-.6-.28-1.15-.77-1.23-.04,0-.08,0-.12,0Z"/>
      </g>
    </g>
    <g>
      <path class="st0" d="M63.98,68.97v53.47c0,2.95,2.39,5.35,5.33,5.35h53.33c2.95,0,5.33-2.39,5.33-5.35v-53.47c0-2.95-2.39-5.35-5.33-5.35h-53.33c-2.94,0-5.33,2.39-5.33,5.35ZM69.39,69.03h53.3v53.34h-53.3v-53.34Z"/>
      <polyline class="st0" points="95.85 68.84 101.18 68.84 95.85 68.84 95.85 76.86 95.85 68.84 95.85 76.86 101.18 75.75 101.18 68.84"/>
      <g>
        <path class="st0" d="M106.19,82.7c-1.47-2.82-3.88-5.73-5.87-8.07-.36-.41-.92-.5-1.39-.22-2.62,1.61-4.43,3.84-6.71,6.06-5.07,4.91-8.21,10.42-9.1,15.97-1.38,8.59,4.82,16.73,12.21,17.91,7.38,1.18,13.15-5.03,14.53-13.62.89-5.55-.37-11.77-3.66-18.02ZM95.77,111.51c-6.04-.98-11.35-7.67-10.23-14.69,1.62-10.11,10.74-17.48,13.61-19.38,2.14,2.7,9.88,12.77,8.26,22.89-1.13,7.02-5.6,12.14-11.64,11.18ZM105.19,101.66c-1.32,4.09-4.67,6.92-8.39,7.09-.07,0-.14,0-.21-.01-.67-.11-1.11-.83-.99-1.61.11-.69.63-1.21,1.24-1.23,2.6-.09,5.13-2.23,6.03-5.1.24-.75.95-1.17,1.59-.93.64.24.97,1.04.73,1.79h0Z"/>
        <path class="st0" d="M94.81,114.6c-7.78-1.53-13.38-9.92-12.04-18.23.9-5.61,4.08-11.2,9.2-16.16.57-.55,1.11-1.11,1.64-1.66,1.61-1.65,3.13-3.22,5.13-4.44.63-.36,1.36-.24,1.83.29,2.1,2.48,4.46,5.35,5.92,8.14h0c3.31,6.31,4.59,12.62,3.69,18.23-1.48,9.21-7.75,15.06-14.92,13.91-.15-.02-.3-.05-.45-.08ZM99.63,74.6c-.18-.03-.36,0-.54.1-1.92,1.18-3.41,2.71-4.98,4.33-.54.55-1.08,1.11-1.66,1.67-5.01,4.86-8.13,10.31-9,15.78-1.15,7.18,3.73,16.2,11.92,17.51,6.78,1.09,12.72-4.52,14.13-13.33.88-5.47-.38-11.62-3.62-17.8h0c-1.42-2.73-3.76-5.57-5.83-8.01-.12-.13-.26-.21-.42-.25ZM95.4,111.79c-5.83-1.14-11.36-7.7-10.2-15.03,1.87-11.67,13.28-19.29,13.77-19.61l.26-.17.2.25c6.46,8.14,9.42,16.36,8.33,23.16-1.24,7.69-6.19,12.4-12.04,11.47h0c-.11-.02-.21-.04-.32-.06ZM99.08,77.91c-1.77,1.23-11.51,8.42-13.2,18.97-1.13,7.08,4.31,13.4,9.94,14.3h0c5.45.87,10.07-3.61,11.25-10.9,1.05-6.53-1.79-14.47-7.99-22.37ZM104.23,100.17c-.19-.04-.36.01-.48.07-.25.12-.45.37-.55.67-.94,3-3.61,5.25-6.35,5.34-.43.01-.82.42-.91.94-.09.58.21,1.12.68,1.21.05,0,.11.01.17.01,3.56-.16,6.8-2.92,8.07-6.85.18-.58-.05-1.19-.52-1.36-.04-.01-.08-.02-.11-.03Z"/>
      </g>
    </g>
  </g>
</svg>