<svg viewBox="0 0 800 450" xmlns="http://www.w3.org/2000/svg">
  <defs>
    <style>
      .bg-outer { fill: #f5f5f5; }
      .sidebar { fill: #e0e0e0; stroke: #ccc; stroke-width: 1; }
      .sidebar-item { fill: transparent; }
      .sidebar-text { fill: #333; font-size: 12px; font-weight: 500; }
      .main-area { fill: white; stroke: #ddd; stroke-width: 1; }
      .header-bar { fill: #ddd; stroke: #ccc; stroke-width: 1; }
      .table-header { fill: #e8e8e8; stroke: #ddd; stroke-width: 1; }
      .table-row { fill: white; stroke: #eee; stroke-width: 1; }
      .section-title { fill: #333; font-size: 13px; font-weight: 600; }
      .text-label { fill: #333; font-size: 10px; font-weight: 500; }
      .text-value { fill: #666; font-size: 10px; }
      .button { fill: #efefef; stroke: #ccc; stroke-width: 1; }
    </style>
  </defs>
  
  <rect class="bg-outer" width="800" height="450"/>
  
  <!-- Top Header -->
  <rect class="header-bar" x="0" y="0" width="800" height="30"/>
  <text style="fill: #333; font-size: 12px; font-weight: 600;" x="20" y="20">De Cacaodroom BI [ADMIN]</text>
  <text style="fill: #333; font-size: 12px;" x="780" y="20" text-anchor="end">[Logout]</text>
  
  <!-- Sidebar Navigation -->
  <rect class="sidebar" x="0" y="30" width="150" height="420"/>
  
  <rect class="sidebar-item" x="0" y="50" width="150" height="40"/>
  <text class="sidebar-text" x="20" y="75">Gebruikers</text>
  
  <rect class="sidebar-item" x="0" y="95" width="150" height="40"/>
  <text class="sidebar-text" x="20" y="120">Databronnen</text>
  
  <rect class="sidebar-item" x="0" y="140" width="150" height="40"/>
  <text class="sidebar-text" x="20" y="165">Alerts</text>
  
  <rect class="sidebar-item" x="0" y="185" width="150" height="40"/>
  <text class="sidebar-text" x="20" y="210">Auditlog</text>
  
  <!-- Main Content: Gebruikersbeheer -->
  <text class="section-title" x="170" y="55">GEBRUIKERSBEHEER</text>
  
  <rect class="button" x="170" y="70" width="80" height="25" rx="2"/>
  <text style="fill: #333; font-size: 10px; font-weight: 600;" x="210" y="87" text-anchor="middle">+ Nieuwe</text>
  
  <!-- Users Table -->
  <rect class="table-header" x="170" y="105" width="600" height="22"/>
  <text class="text-label" x="180" y="121">Naam</text>
  <text class="text-label" x="350" y="121">Rol</text>
  <text class="text-label" x="550" y="121">Status</text>
  
  <rect class="table-row" x="170" y="127" width="600" height="20"/>
  <text class="text-value" x="180" y="140">Thijs Sonnega</text>
  <text class="text-value" x="350" y="140">CEO</text>
  <text style="fill: #388e3c; font-size: 10px;" x="550" y="140">Actief</text>
  
  <rect class="table-row" x="170" y="147" width="600" height="20"/>
  <text class="text-value" x="180" y="160">Noah de Groot</text>
  <text class="text-value" x="350" y="160">CFO</text>
  <text style="fill: #388e3c; font-size: 10px;" x="550" y="160">Actief</text>
  
  <rect class="table-row" x="170" y="167" width="600" height="20"/>
  <text class="text-value" x="180" y="180">Dien van Aar</text>
  <text class="text-value" x="350" y="180">COO</text>
  <text style="fill: #388e3c; font-size: 10px;" x="550" y="180">Actief</text>
  
  <!-- Databronnen Section -->
  <text class="section-title" x="170" y="220">DATABRONNEN</text>
  
  <!-- Connection 1: Odoo -->
  <rect class="main-area" x="170" y="235" width="190" height="80"/>
  <text class="text-label" x="180" y="255">Odoo ERP</text>
  <text class="text-value" x="180" y="272">Status: Verbonden</text>
  <text class="text-value" x="180" y="287">Laatst: 2024-01-20</text>
  <rect class="button" x="180" y="295" width="50" height="20" rx="2"/>
  <text style="fill: #333; font-size: 9px; font-weight: 600;" x="205" y="307" text-anchor="middle">Testen</text>
  
  <!-- Connection 2: CRM -->
  <rect class="main-area" x="375" y="235" width="190" height="80"/>
  <text class="text-label" x="385" y="255">CRM</text>
  <text class="text-value" x="385" y="272">Status: Verbonden</text>
  <text class="text-value" x="385" y="287">Laatst: 2024-01-20</text>
  <rect class="button" x="385" y="295" width="50" height="20" rx="2"/>
  <text style="fill: #333; font-size: 9px; font-weight: 600;" x="410" y="307" text-anchor="middle">Testen</text>
  
  <!-- Connection 3: Excel -->
  <rect class="main-area" x="580" y="235" width="190" height="80"/>
  <text class="text-label" x="590" y="255">Excel</text>
  <text class="text-value" x="590" y="272">Status: Verbonden</text>
  <text class="text-value" x="590" y="287">Laatst: 2024-01-19</text>
  <rect class="button" x="590" y="295" width="50" height="20" rx="2"/>
  <text style="fill: #333; font-size: 9px; font-weight: 600;" x="615" y="307" text-anchor="middle">Testen</text>
  
  <!-- Import Section -->
  <text class="section-title" x="170" y="340">IMPORT STATUS</text>
  
  <rect style="fill: #e8f5e9; stroke: #4caf50; stroke-width: 1;" x="170" y="355" width="600" height="30" rx="2"/>
  <text style="fill: #388e3c; font-size: 10px; font-weight: 600;" x="180" y="375">Alle databronnen succesvol gesynchroniseerd (18:30)</text>
  
  <rect class="button" x="170" y="395" width="100" height="25" rx="2"/>
  <text style="fill: #333; font-size: 10px; font-weight: 600;" x="220" y="412" text-anchor="middle">+ Import Nu</text>
  
  <rect class="button" x="280" y="395" width="100" height="25" rx="2"/>
  <text style="fill: #333; font-size: 10px; font-weight: 600;" x="330" y="412" text-anchor="middle">Schema</text>
</svg>
